<svg xmlns="http://www.w3.org/2000/svg" data-name="Layer 1" viewBox="0 0 512 640" x="0px" y="0px"><title>N_T_1180Artboard 1 copy 5</title><path d="M386,359.66c-3.74,1.13-8,2.7-12.78,4.43-34.08,12.46-85.59,31.27-122.37-35.29-32.31-58.48-68.71-57.55-100.88-56.73-12.19.3-23.65.6-33.73-2.58-40.79-12.84-32.81-61.69-30.8-71.34,3.87-18.57,21.11-30.28,36.13-32.26,12.34-1.61,22.28,3.19,27.29,13.14,7.23,14.37-.61,21.11-3.19,22.83a14.12,14.12,0,0,1-3.86,1.82c2.65-2.77,4-6.65,4-11.54,0-8.27-6.56-15.79-15.61-17.87-11.23-2.57-21.68,3.77-28.1,17-7.34,15.09-7.15,30.37.53,40.86,6.16,8.43,19.77,17.57,49.78,13.2,48.66-7.1,76.86,1.11,100.56,29.23,2.83,3.34,5.57,6.83,8.32,10.31,4.14,5.24,8.4,10.61,13,15.59,0,0,0,0,0,.06h0c18.88,20.45,43.53,34.14,90.14,3.8,50.64-32.94,73.82-19.64,74-19.53a3.68,3.68,0,1,0,4-6.2c-1.07-.69-26.82-16.33-82,19.57-40.38,26.28-61.46,17.28-78.67-.45,49.29-52.37,157.57-53.06,158.67-53.06a3.68,3.68,0,1,0,0-7.36c-3.48,0-64.78.39-117,23.47-43-13-47.58-42.54-51.54-68.63-1.32-8.69-2.57-16.91-5.28-23.57-6.25-15.29-20.55-19.37-31.93-16.66-11.65,2.78-19.21,11.81-18.39,21.94.59,7.25,3.11,12.17,7.48,14.63a12.44,12.44,0,0,0,4,1.42,13.93,13.93,0,0,1-5.18.67c-7.39-.48-16.17-6.34-18-18.09-1.56-10.05,2.61-20.64,10.86-27.64,11.55-9.79,29-11.52,49.19-4.88,18.06,6,27.16,25.23,36,43.86,12.29,26.05,25.06,53,61.78,44.27,45.22-10.69,78.54-30,79.94-30.77a3.68,3.68,0,1,0-3.71-6.35,319.08,319.08,0,0,1-77.91,30c-31,7.32-41.41-14.73-53.46-40.25-9.46-20-19.25-40.76-40.3-47.7-30.61-10.09-48.38-.41-56.25,6.25-10.2,8.65-15.31,21.82-13.36,34.38,2.45,15.76,14.58,23.64,24.8,24.3,8.88.6,16.11-4.13,18.4-12a3.69,3.69,0,0,0-5.16-4.33c-1.33.65-5.34,2-8,.49s-3.47-5.62-3.73-8.81c-.61-7.51,6.19-12.62,12.76-14.19,7.75-1.84,18.49.25,23.4,12.27,2.39,5.86,3.57,13.65,4.82,21.91,3.66,24,8.6,56.4,49.23,72-13.8,7.06-26.58,15.93-37.09,27-3.3-3.82-6.52-7.85-9.76-12-2.81-3.55-5.6-7.09-8.47-10.49C233.05,239.42,203,230.51,151.39,238c-20.86,3-35.67-.51-42.8-10.26-6-8.26-6-20.71.16-33.31,4.89-10,12.15-14.78,19.83-13,5.65,1.3,9.9,5.9,9.9,10.7,0,3.15-.77,5.43-2.28,6.78-2.3,2.05-5.88,1.66-5.88,1.66a3.68,3.68,0,0,0-3.27,6c5.17,6,15,6.58,22.75,1.35,7.56-5.06,13.58-16.54,5.67-32.26C149,163,136,156.62,120.66,158.6c-17.6,2.31-37.81,16.12-42.38,38-6.48,31.12-.48,68.45,35.79,79.87,11.27,3.55,23.36,3.26,36.12,2.91,29-.7,58.89-1.39,87,41-4.72,3.57-16.86,10.81-36.13,9-10.61-1-23.19-8.48-36.53-16.42-19.15-11.44-39-23.23-57.84-18.87C73.93,301.77,67,330.06,67.87,344,68.39,352,73.65,367.1,86,375.69a32.89,32.89,0,0,0,19.07,5.93A41.37,41.37,0,0,0,117,379.78c16.17-4.87,21.52-20.88,22.46-32.37,11.43,10.79,26,22.31,49.2,25,40.37,4.66,68.42-7.71,76.6-11.93,17.61,17.33,37.05,22.95,55.5,22.94,21,0,40.76-7.21,55-12.42,4.6-1.68,8.77-3.2,12.39-4.3,27.31-8.24,49.57,12.79,49.79,13a3.68,3.68,0,0,0,5.12-5.28C442.05,373.42,417.6,350.12,386,359.66ZM189.5,365.1c-24.26-2.8-38.48-16.65-49.91-27.77-10.22-10-19-18.55-31.33-15.65-13.86,3.29-18.5,14-18.22,23,.35,11,7.53,20.2,17.07,21.83s17.71-4.27,23.32-10.6c-2.06,6.82-6.42,14.07-15.55,16.82-9.37,2.82-17.66,1.78-24.67-3.09-10.16-7-14.59-19.8-15-26.17-.76-11.75,5.2-35.67,33.12-42.18,16-3.74,34.5,7.33,52.41,18,14.06,8.4,27.34,16.32,39.62,17.44,20.88,1.86,34.62-5.73,40.71-10.12,1.13,1.88,2.26,3.69,3.39,5.73A129.23,129.23,0,0,0,260,354.84C250.59,359.27,224.84,369.19,189.5,365.1Zm-57.29-24.69c-2,3.68-11.75,20.88-23.86,18.86-6.85-1.17-10.76-8.51-10.95-14.81-.1-2.94.53-12.77,12.55-15.62a12.7,12.7,0,0,1,3-.36C119,328.48,124.45,333,132.21,340.41Z"/><text x="0" y="527" fill="#000000" font-size="5px" font-weight="bold" font-family="'Helvetica Neue', Helvetica, Arial-Unicode, Arial, Sans-serif">Created by Teewara soontorn</text><text x="0" y="532" fill="#000000" font-size="5px" font-weight="bold" font-family="'Helvetica Neue', Helvetica, Arial-Unicode, Arial, Sans-serif">from the Noun Project</text></svg>